<svg version="1.2" xmlns="http://www.w3.org/2000/svg" viewBox="0 0 555 554" width="555" height="554">
	<title>-e-4</title>
	<defs>
		<linearGradient id="g1" x2="1" gradientUnits="userSpaceOnUse" gradientTransform="matrix(378.003,-654.72,654.721,378.003,-238.798,415.484)">
			<stop offset="0" stop-color="#ffeb3b"/>
			<stop offset="1" stop-color="#ff9800"/>
		</linearGradient>
		<linearGradient id="g2" x2="1" gradientUnits="userSpaceOnUse" gradientTransform="matrix(-474.217,474.217,-474.217,-474.217,751.78,277.126)">
			<stop offset="0" stop-color="#ffeb3b"/>
			<stop offset="1" stop-color="#ff9800"/>
		</linearGradient>
	</defs>
	<style>
		.s0 { fill: url(#g1) } 
		.s1 { fill: url(#g2) } 
	</style>
	<g id="-e-4">
		<path id="&lt;Path&gt;" class="s0" d="m83.7 553.8c-45.8 0-82.9-37.1-82.9-82.8v-387.7c0-45.8 37.1-82.9 82.9-82.9h387.7c45.8 0 82.9 37.1 82.9 82.9v387.7c0 45.7-37.1 82.8-82.9 82.8z"/>
		<path id="&lt;Path&gt;" class="s1" d="m111.5 514.2c-39.3 0-71-31.8-71-71v-332.2c0-39.2 31.7-71 71-71h332.2c39.2 0 71 31.8 71 71v332.2c0 39.2-31.8 71-71 71z"/>
	</g>
</svg>